<?xml version="1.0" standalone="no"?><!DOCTYPE svg PUBLIC "-//W3C//DTD SVG 1.1//EN" "http://www.w3.org/Graphics/SVG/1.1/DTD/svg11.dtd"><svg class="icon" width="200px" height="200.00px" viewBox="0 0 1024 1024" version="1.1" xmlns="http://www.w3.org/2000/svg"><path fill="#bfbfbf" d="M780.8 486.4c25.6 0 51.2 6.4 76.8 12.8V281.6L569.6 0H0v972.8h550.4c-38.4-57.6-64-121.6-64-192 0-166.4 134.4-294.4 294.4-294.4zM537.6 108.8l217.6 217.6H537.6V108.8zM166.4 332.8H384v64H166.4v-64z m211.2 339.2H166.4v-64H384l-6.4 64z m57.6-140.8H166.4v-64h268.8v64z"  /><path fill="#bfbfbf" d="M761.6 768L896 569.6c-38.4-19.2-76.8-32-115.2-32-134.4 0-243.2 108.8-243.2 243.2C537.6 915.2 640 1024 768 1024h12.8c134.4 0 236.8-102.4 243.2-236.8l-262.4-19.2z"  /></svg>