<?xml version="1.0" standalone="no"?><!DOCTYPE svg PUBLIC "-//W3C//DTD SVG 1.1//EN" "http://www.w3.org/Graphics/SVG/1.1/DTD/svg11.dtd"><svg class="icon" width="200px" height="200.00px" viewBox="0 0 1024 1024" version="1.1" xmlns="http://www.w3.org/2000/svg"><path fill="#bfbfbf" d="M592 336h-416c-52.928 0-96 43.072-96 96v416c0 52.928 43.072 96 96 96h416c52.928 0 96-43.072 96-96v-416c0-52.928-43.072-96-96-96z m32 512a32 32 0 0 1-32 32h-416c-17.632 0-32-14.336-32-32v-416c0-17.632 14.368-32 32-32h416c17.664 0 32 14.368 32 32v416zM720 208h-416a32 32 0 0 0 0 64h416c17.664 0 32 14.368 32 32v416a32 32 0 1 0 64 0v-416c0-52.928-43.072-96-96-96zM528 752h-288a32 32 0 1 0 0 64h288a32 32 0 1 0 0-64zM848 80h-416a32 32 0 0 0 0 64h416c17.664 0 32 14.368 32 32v416a32 32 0 1 0 64 0v-416c0-52.928-43.072-96-96-96z" /></svg>