<?xml version="1.0" standalone="no"?><!DOCTYPE svg PUBLIC "-//W3C//DTD SVG 1.1//EN" "http://www.w3.org/Graphics/SVG/1.1/DTD/svg11.dtd"><svg class="icon" width="200px" height="200.00px" viewBox="0 0 1024 1024" version="1.1" xmlns="http://www.w3.org/2000/svg"><path fill="#bfbfbf" d="M800 704c-39.584 0-74.528 18.368-98.016 46.592l-273.472-154.72A191.04 191.04 0 0 0 448 512c0-28.928-6.592-56.256-18.048-80.864l204.64-131.84A127.04 127.04 0 0 0 704 320a128 128 0 1 0-128-128c0 21.504 5.792 41.44 15.168 59.232l-197.408 127.168A191.36 191.36 0 0 0 256 320a192 192 0 1 0 135.2 328.288l283.168 160.192A129.376 129.376 0 0 0 672 832a128 128 0 1 0 128-128zM704 128a64 64 0 1 1-0.032 128.032A64 64 0 0 1 704 128z m96 768a64 64 0 1 1 0.032-128.032A64 64 0 0 1 800 896z" /></svg>