<?xml version="1.0" standalone="no"?><!DOCTYPE svg PUBLIC "-//W3C//DTD SVG 1.1//EN" "http://www.w3.org/Graphics/SVG/1.1/DTD/svg11.dtd"><svg class="icon" width="200px" height="200.00px" viewBox="0 0 1024 1024" version="1.1" xmlns="http://www.w3.org/2000/svg"><path fill="#bfbfbf" d="M826.92 857.397H197.08c-33.667 0-60.953-27.287-60.953-60.953V349.46c0-33.666 27.286-60.952 60.952-60.952h121.905v-60.952c0-33.666 27.286-60.953 60.953-60.953h243.809c33.666 0 60.952 27.287 60.952 60.953v60.952H826.921c33.666 0 60.952 27.286 60.952 60.952v446.984c0 33.666-27.286 60.953-60.952 60.953zM644.064 247.873c0-22.43-18.204-40.635-40.634-40.635H400.254c-22.43 0-40.635 18.205-40.635 40.635v40.635h284.444v-40.635z m203.175 121.905c0-22.43-18.204-40.635-40.635-40.635H217.397c-22.43 0-40.635 18.204-40.635 40.635v162.54h304.762v-50.794c0-16.823 13.653-30.476 30.476-30.476s30.476 13.653 30.476 30.476v50.793h304.762v-162.54z m0 203.174H542.476v10.16c0 16.842-13.653 30.475-30.476 30.475s-30.476-13.633-30.476-30.476v-10.159H176.762v203.175c0 22.43 18.204 40.635 40.635 40.635h589.206c22.43 0 40.635-18.205 40.635-40.635V572.952z" /></svg>