<?xml version="1.0" standalone="no"?><!DOCTYPE svg PUBLIC "-//W3C//DTD SVG 1.1//EN" "http://www.w3.org/Graphics/SVG/1.1/DTD/svg11.dtd"><svg class="icon" width="200px" height="200.00px" viewBox="0 0 1024 1024" version="1.1" xmlns="http://www.w3.org/2000/svg"><path fill="#bfbfbf" d="M260.096 544H160a32 32 0 0 1-32-32V256h480v256a32 32 0 0 1-32 32h-54.976a32 32 0 0 0 0 64H576a96 96 0 0 0 96-96V160a96 96 0 0 0-96-96H160a96 96 0 0 0-96 96v352a96 96 0 0 0 96 96h100.096a32 32 0 0 0 0-64zM128 160a32 32 0 0 1 32-32h416a32 32 0 0 1 32 32v32H128V160zM864 416h-90.88a32 32 0 0 0 0 64H864a32 32 0 0 1 32 32v256H416v-256a32 32 0 0 1 32-32h63.072a32 32 0 0 0 0-64H448a96 96 0 0 0-96 96v352a96 96 0 0 0 96 96h416a96 96 0 0 0 96-96V512a96 96 0 0 0-96-96z m32 448a32 32 0 0 1-32 32H448a32 32 0 0 1-32-32v-32h480v32z" /></svg>