<?xml version="1.0" standalone="no"?><!DOCTYPE svg PUBLIC "-//W3C//DTD SVG 1.1//EN" "http://www.w3.org/Graphics/SVG/1.1/DTD/svg11.dtd"><svg class="icon" width="200px" height="200.00px" viewBox="0 0 1024 1024" version="1.1" xmlns="http://www.w3.org/2000/svg"><path fill="#bfbfbf" d="M166.464 448.704l212.64 128.736a32 32 0 1 1-33.152 54.72l-266.528-161.312a32 32 0 0 1 4.256-56.928l832-347.456a32 32 0 0 1 43.744 35.52l-145.76 768a32 32 0 0 1-48.576 21.056l-270.208-171.328a32 32 0 0 1 34.24-54.08l230.464 146.112L885.44 148.48 166.464 448.704zM416 632.096V896a32 32 0 0 1-64 0v-278.624a32 32 0 0 1 11.2-24.32L752.192 260a32 32 0 0 1 41.6 48.64L416 632.064z" /></svg>