<?xml version="1.0" standalone="no"?><!DOCTYPE svg PUBLIC "-//W3C//DTD SVG 1.1//EN" "http://www.w3.org/Graphics/SVG/1.1/DTD/svg11.dtd"><svg class="icon" width="200px" height="200.00px" viewBox="0 0 1024 1024" version="1.1" xmlns="http://www.w3.org/2000/svg"><path fill="#bfbfbf" d="M435.2 326.4a32 32 0 0 0-44.8 6.4l-96 128a31.968 31.968 0 0 0 0 38.4l96 128a32 32 0 0 0 51.2-38.4L360 480l81.6-108.8a32 32 0 0 0-6.4-44.8zM748.8 633.6a32 32 0 0 0 44.8-6.4l96-128a31.968 31.968 0 0 0 0-38.4l-96-128a32 32 0 0 0-51.2 38.4l81.6 108.8-81.6 108.8a32 32 0 0 0 6.4 44.8zM592.768 313.056l-64 288a32 32 0 1 0 62.464 13.888l64-288a32 32 0 1 0-62.464-13.888zM864 636.384a32 32 0 0 0-32 32V736h-96a96 96 0 0 0-96 96v96H227.04C207.712 928 192 911.424 192 891.072V132.928C192 112.576 207.712 96 227.04 96h569.888C816.288 96 832 112.576 832 132.928v124.448a32 32 0 1 0 64 0V132.928C896 77.28 851.552 32 796.928 32H227.04C172.448 32 128 77.28 128 132.928v758.144C128 946.72 172.448 992 227.04 992h435.008c1.568 0 2.912-0.672 4.416-0.896 8.96 1.6 18.464-0.256 25.984-6.528l192-160a32 32 0 0 0 10.144-33.888c0.544-2.272 1.408-4.416 1.408-6.848v-115.456a32 32 0 0 0-32-32zM736 800h78.016L704 891.68V832a32 32 0 0 1 32-32z" /></svg>