<?xml version="1.0" standalone="no"?><!DOCTYPE svg PUBLIC "-//W3C//DTD SVG 1.1//EN" "http://www.w3.org/Graphics/SVG/1.1/DTD/svg11.dtd"><svg class="icon" width="200px" height="200.00px" viewBox="0 0 1024 1024" version="1.1" xmlns="http://www.w3.org/2000/svg"><path fill="#bfbfbf" d="M573.952 294.912H450.048c-75.264 0-136.192-60.928-136.192-136.192S374.784 22.528 450.048 22.528h123.904c75.264 0 136.192 60.928 136.192 136.192 0.512 35.84-12.8 69.632-38.4 95.232-25.6 26.624-60.416 40.96-97.792 40.96zM450.048 73.728c-47.104 0-84.992 37.888-84.992 84.992s37.888 84.992 84.992 84.992h123.904c23.552 0 45.056-9.216 61.44-25.6 15.872-15.872 24.064-36.864 23.552-58.88 0-47.104-37.888-85.504-84.992-85.504H450.048zM573.952 641.536H450.048c-75.264 0-136.192-60.928-136.192-136.192 0-75.264 60.928-136.192 136.192-136.192h123.904c75.264 0 136.192 60.928 136.192 136.192 0.512 35.84-12.8 69.632-38.4 95.232-25.6 26.624-60.416 40.96-97.792 40.96zM450.048 420.352c-47.104 0-84.992 37.888-84.992 84.992s37.888 84.992 84.992 84.992h123.904c23.552 0 45.056-9.216 61.44-25.6 15.872-15.872 24.064-36.864 23.552-58.88 0-47.104-37.888-85.504-84.992-85.504H450.048zM573.952 993.792H450.048c-75.264 0-136.192-60.928-136.192-136.192s60.928-136.192 136.192-136.192h123.904c75.264 0 136.192 60.928 136.192 136.192 0.512 35.84-12.8 69.632-38.4 95.232-25.6 26.624-60.416 40.96-97.792 40.96z m-123.904-221.184c-47.104 0-84.992 37.888-84.992 84.992s37.888 84.992 84.992 84.992h123.904c23.552 0 45.056-9.216 61.44-25.6 15.872-15.872 24.064-36.864 23.552-58.88 0-47.104-37.888-85.504-84.992-85.504H450.048z"  /><path fill="#bfbfbf" d="M335.872 530.432H203.776C94.208 530.432 5.12 441.344 5.12 331.776S94.208 133.12 203.776 133.12h132.096c14.336 0 25.6 11.264 25.6 25.6s-11.264 25.6-25.6 25.6H203.776C122.368 184.32 56.32 250.368 56.32 331.776s66.048 147.456 147.456 147.456h132.096c14.336 0 25.6 11.264 25.6 25.6s-11.264 25.6-25.6 25.6z"  /><path fill="#bfbfbf" d="M227.84 624.128c-7.168 0-14.336-3.072-19.456-8.704-9.216-10.752-8.192-26.624 2.56-36.352l108.032-93.696c10.752-9.216 26.624-8.192 36.352 2.56 9.216 10.752 8.192 26.624-2.56 36.352l-108.032 93.696c-5.12 4.096-10.752 6.144-16.896 6.144zM815.104 873.472h-132.096c-14.336 0-25.6-11.264-25.6-25.6s11.264-25.6 25.6-25.6h132.096c81.408 0 147.456-66.048 147.456-147.456S896.512 527.36 815.104 527.36h-132.096c-14.336 0-25.6-11.264-25.6-25.6s11.264-25.6 25.6-25.6h132.096c109.568 0 198.656 89.088 198.656 198.656s-89.088 198.656-198.656 198.656z"  /><path fill="#bfbfbf" d="M786.944 963.072c-6.144 0-11.776-2.048-16.896-6.144l-103.936-89.6c-10.752-9.216-11.776-25.6-2.56-36.352 9.216-10.752 25.6-11.776 36.352-2.56l103.936 89.6c10.752 9.216 11.776 25.6 2.56 36.352-5.12 5.632-12.288 8.704-19.456 8.704z"  /><path fill="#bfbfbf" d="M683.008 868.864c-7.168 0-14.336-3.072-19.456-8.704-9.216-10.752-8.192-26.624 2.56-36.352l103.936-89.6c10.752-9.216 26.624-8.192 36.352 2.56 9.216 10.752 8.192 26.624-2.56 36.352l-103.936 89.6c-5.12 4.096-10.752 6.144-16.896 6.144zM339.456 520.192c-6.144 0-11.776-2.048-16.896-6.144L215.04 420.864c-10.752-9.216-11.776-25.6-2.56-36.352 9.216-10.752 25.6-11.776 36.352-2.56l107.52 93.184c10.752 9.216 11.776 25.6 2.56 36.352-5.12 5.632-12.288 8.704-19.456 8.704z"  /></svg>