<?xml version="1.0" standalone="no"?><!DOCTYPE svg PUBLIC "-//W3C//DTD SVG 1.1//EN" "http://www.w3.org/Graphics/SVG/1.1/DTD/svg11.dtd"><svg class="icon" width="200px" height="200.00px" viewBox="0 0 1024 1024" version="1.1" xmlns="http://www.w3.org/2000/svg"><path fill="#bfbfbf" d="M900.83328 747.55072c0-61.29664-72.08448-136.78592-129.408-145.3056l77.75744-128.27648h-179.92704c32.35328-46.5408 53.92384-107.84768 53.92384-175.95904v-15.89248c69.81632-12.48768 115.22048-32.35328 115.22048-52.21888 0-21.56544-50.51392-41.43616-127.70816-53.92384-3.4048-18.16576-55.62368-165.1712-116.92032-165.1712-27.24352 0-48.8192 14.18752-63.00672 35.75808 0 10.78784-10.78272 21.56544-24.97536 21.56544-12.48768 0-23.2704-9.08288-24.97024-19.8656C468.32128 26.7008 445.05088 10.24 417.80736 10.24 358.21056 10.24 302.58688 145.32608 290.0992 179.38432c-66.4064 12.48768-109.54752 30.64832-109.54752 52.21888 0 21.56544 44.84096 39.72608 115.2256 52.21888v15.89248c0 68.11136 19.8656 129.41312 53.92384 175.95904H169.76896l77.19424 126.00832c-57.32864 0-132.82304 78.8992-132.82304 147.57376l1.70496 206.60736c0 34.05824 26.6752 61.30176 61.30176 61.30176h664.65792a61.04576 61.04576 0 0 0 61.30176-61.30176l-2.27328-208.31232zM460.94336 966.64576h-28.94848l-53.92384-397.32224 112.95744 98.75968-30.08512 298.56256z m123.74016 0h-28.94848l-30.65344-298.56256 113.52064-100.46464-53.91872 399.0272z m68.11136-627.2v12.48768h-14.18752s-9.08288 77.19424-57.32864 77.19424c-48.81408 0-57.89184-77.19424-57.89184-77.19424h-32.34816c-7.37792 63.0016-39.7312 77.19424-57.32864 77.19424-43.136 0-55.6288-57.32864-57.32864-77.19424H361.6256V326.9632h107.84256v12.48768h72.0896V326.9632h107.84256v12.48768h3.39456z m0 0"  /></svg>