<?xml version="1.0" standalone="no"?><!DOCTYPE svg PUBLIC "-//W3C//DTD SVG 1.1//EN" "http://www.w3.org/Graphics/SVG/1.1/DTD/svg11.dtd"><svg class="icon" width="200px" height="200.00px" viewBox="0 0 1024 1024" version="1.1" xmlns="http://www.w3.org/2000/svg"><path fill="#bfbfbf" d="M880.66666667 481.904H100.66666667c-16.5024 0-30 13.5024-30 30s13.5024 30 30 30h780c16.5024 0 30-13.5024 30-30s-13.4976-30-30-30zM850.94986667 632h-0.6576a29.7264 29.7264 0 0 0-29.7168 29.7168v132.4704c0 26.6256-21.8448 48.4704-48.4704 48.4704h-132.3744c-16.4064 0-29.7168 13.3104-29.7168 29.7168s13.3104 29.7168 29.7168 29.7168h164.3424c42.096 0 76.5936-34.4976 76.5936-76.5936v-163.7808a29.7264 29.7264 0 0 0-29.7168-29.7168zM132.82186667 392a29.9664 29.9664 0 0 0 30-30V233.4704c0-26.8128 21.936-48.7488 48.7488-48.7488h128.5296a29.9664 29.9664 0 0 0 30-30v-0.6576a29.9664 29.9664 0 0 0-30-30H179.69866667c-42.2832 0-76.8768 34.5936-76.8768 76.8768V362a29.9664 29.9664 0 0 0 30 30z m507.1872-207.2832h131.904c26.8128 0 48.7488 21.936 48.7488 48.7488V362c0 16.5936 13.4064 30 30 30s30-13.4064 30-30V201.032c0-42.2832-34.5936-76.8768-76.8768-76.8768h-163.7808a29.9664 29.9664 0 0 0-30 30v0.6576c0.0048 16.4976 13.5072 29.904 30.0048 29.904zM340.38346667 842.6576H211.19626667c-26.6256 0-48.4704-21.8448-48.4704-48.4704v-132.4704A29.7264 29.7264 0 0 0 133.00906667 632h-0.6576a29.7264 29.7264 0 0 0-29.7168 29.7168v163.7808c0 42.096 34.5024 76.5936 76.5936 76.5936h160.968a29.7264 29.7264 0 0 0 29.7168-29.7168 29.448 29.448 0 0 0-29.5296-29.7168z"  /></svg>