<?xml version="1.0" standalone="no"?><!DOCTYPE svg PUBLIC "-//W3C//DTD SVG 1.1//EN" "http://www.w3.org/Graphics/SVG/1.1/DTD/svg11.dtd"><svg class="icon" width="200px" height="200.00px" viewBox="0 0 1024 1024" version="1.1" xmlns="http://www.w3.org/2000/svg"><path fill="#bfbfbf" d="M909 959H115a50 50 0 0 1-50-50V115a50 50 0 0 1 50-50h794a50 50 0 0 1 50 50v794a50 50 0 0 1-50 50z m-10-819a15 15 0 0 0-15-15H140a15 15 0 0 0-15 15v744a15 15 0 0 0 15 15h744a15 15 0 0 0 15-15V140z m-89.938 611H335a30 30 0 0 1 0-60h474.062a30 30 0 1 1 0 60z m0-209H335a30 30 0 0 1 0-60h474.062a30 30 0 1 1 0 60z m0-208H335a30 30 0 0 1 0-60h474.062a30 30 0 1 1 0 60zM215 751a30 30 0 1 1 30-30 30 30 0 0 1-30 30z m0-209a30 30 0 1 1 30-30 30 30 0 0 1-30 30z m0-208a30 30 0 1 1 30-30 30 30 0 0 1-30 30z"  /></svg>