<?xml version="1.0" standalone="no"?><!DOCTYPE svg PUBLIC "-//W3C//DTD SVG 1.1//EN" "http://www.w3.org/Graphics/SVG/1.1/DTD/svg11.dtd"><svg class="icon" width="200px" height="195.23px" viewBox="0 0 1049 1024" version="1.1" xmlns="http://www.w3.org/2000/svg"><path fill="#bfbfbf" d="M498.17515 468.332304L15.669992 261.357831a28.075402 28.075402 0 0 1 0-50.274556L499.480983 5.414635a50.927473 50.927473 0 0 1 45.704142 0l483.158074 195.874895a28.075402 28.075402 0 0 1 0 50.274557L546.490957 468.332304a56.80372 56.80372 0 0 1-48.315807 0zM1039.442777 779.773387a30.687067 30.687067 0 0 0-30.687067-30.687067 33.298732 33.298732 0 0 0-11.099578 0l-466.18225 207.627389a21.546238 21.546238 0 0 1-17.62874 0l-466.182251-195.874895H37.869146a30.687067 30.687067 0 0 0-10.446661 59.415385l462.264753 195.874895a80.961623 80.961623 0 0 0 34.604565 7.834996 65.291632 65.291632 0 0 0 31.992899-7.18208l462.917669-203.709891a31.339983 31.339983 0 0 0 20.240406-33.298732z"  /><path fill="#bfbfbf" d="M1044.666107 502.283952a30.687067 30.687067 0 0 0-30.687067-31.339983 28.075402 28.075402 0 0 0-14.364159 3.917498L527.556384 685.753437a22.199155 22.199155 0 0 1-16.975824 0L46.357059 475.514383H42.439561a32.645816 32.645816 0 0 0-8.487913 0 30.687067 30.687067 0 0 0-15.017075 57.456636l467.488083 211.544887a80.961623 80.961623 0 0 0 34.604565 7.834996 79.655791 79.655791 0 0 0 32.645816-7.18208l475.323079-212.197803a31.339983 31.339983 0 0 0 15.669991-30.687067z"  /></svg>