<?xml version="1.0" standalone="no"?><!DOCTYPE svg PUBLIC "-//W3C//DTD SVG 1.1//EN" "http://www.w3.org/Graphics/SVG/1.1/DTD/svg11.dtd"><svg class="icon" width="200px" height="200.00px" viewBox="0 0 1024 1024" version="1.1" xmlns="http://www.w3.org/2000/svg"><path fill="#bfbfbf" d="M477.866667 337.493333h68.266666v285.866667h-68.266666z"  opacity=".99" /><path fill="#bfbfbf" d="M512 230.4m-119.466667 0a119.466667 119.466667 0 1 0 238.933334 0 119.466667 119.466667 0 1 0-238.933334 0Z"  opacity=".99" /><path fill="#bfbfbf" d="M221.866667 793.6m-119.466667 0a119.466667 119.466667 0 1 0 238.933333 0 119.466667 119.466667 0 1 0-238.933333 0Z"  opacity=".99" /><path fill="#bfbfbf" d="M802.133333 793.6m-119.466666 0a119.466667 119.466667 0 1 0 238.933333 0 119.466667 119.466667 0 1 0-238.933333 0Z"  opacity=".99" /><path fill="#bfbfbf" d="M512 793.6m-119.466667 0a119.466667 119.466667 0 1 0 238.933334 0 119.466667 119.466667 0 1 0-238.933334 0Z"  opacity=".99" /><path fill="#bfbfbf" d="M256 520.533333h512v102.4h68.266667v-119.466666c0-28.16-23.04-51.2-51.2-51.2H238.933333c-28.16 0-51.2 23.04-51.2 51.2v119.466666h68.266667v-102.4z"  opacity=".99" /></svg>