<?xml version="1.0" standalone="no"?><!DOCTYPE svg PUBLIC "-//W3C//DTD SVG 1.1//EN" "http://www.w3.org/Graphics/SVG/1.1/DTD/svg11.dtd"><svg t="1553748734209" class="icon" style="" viewBox="0 0 1024 1024" version="1.1" xmlns="http://www.w3.org/2000/svg" p-id="783" xmlns:xlink="http://www.w3.org/1999/xlink" width="200" height="200"><defs><style type="text/css"></style></defs><path d="M886.401 395.097h-251.7V80.614c0-22.091-19.899-40-44.447-40H439.148c-24.547 0-44.447 17.909-44.447 40v314.483h-251.7c-22.315 0-40.404 17.909-40.404 40v506.471c0 22.091 18.09 40 40.404 40h743.4c22.315 0 40.404-17.909 40.404-40V435.097c0.001-22.092-18.089-40-40.404-40z m-10.72 536.47h-127.98V831c0-17.673-12.088-32-27-32s-27 14.327-27 32v100.567h-152V792c0-14.912-12.088-27-27-27s-27 12.088-27 27v139.567h-152V831c0-17.673-12.088-32-27-32s-27 14.327-27 32v100.567H152.597V688.332h723.084v243.235z m0-293.235H152.597V445.097H444.479V90.614h137.819v354.483H875.68v193.235z" p-id="784"></path></svg>